<?xml version="1.0" standalone="no"?><!DOCTYPE svg PUBLIC "-//W3C//DTD SVG 1.1//EN" "http://www.w3.org/Graphics/SVG/1.1/DTD/svg11.dtd"><svg t="1574390717846" class="icon" viewBox="0 0 1024 1024" version="1.1" xmlns="http://www.w3.org/2000/svg" p-id="6150" xmlns:xlink="http://www.w3.org/1999/xlink" width="200" height="200"><defs><style type="text/css"></style></defs><path d="M263.914057 205.1072c14.818743 0 29.564343 5.632 40.813714 16.866743l207.6672 206.877257 206.877258-206.877257a57.519543 57.519543 0 0 1 40.828342-16.852114c14.979657 0 30.032457 5.763657 41.530515 17.261714 22.864457 22.849829 23.025371 59.713829 0.394971 82.358857L595.163429 511.605029l206.877257 207.6672c22.6304 22.6304 22.454857 59.509029-0.380343 82.373485a58.587429 58.587429 0 0 1-41.530514 17.232457 57.5488 57.5488 0 0 1-40.842972-16.852114L512.394971 594.358857 304.727771 802.011429a57.461029 57.461029 0 0 1-40.828342 16.881371 58.660571 58.660571 0 0 1-41.530515-17.261714c-22.864457-22.864457-23.025371-59.743086-0.394971-82.373486l207.681828-207.6672-207.681828-206.862629c-22.6304-22.6304-22.4256-59.509029 0.394971-82.358857a58.631314 58.631314 0 0 1 41.545143-17.261714m0-58.514286a116.501943 116.501943 0 0 0-82.900114 34.391772c-45.641143 45.655771-45.816686 119.734857-0.4096 165.112685l166.224457 165.5808-166.224457 166.1952c-45.421714 45.450971-45.231543 119.544686 0.4096 165.141943a116.384914 116.384914 0 0 0 82.885486 34.4064 115.419429 115.419429 0 0 0 82.212571-34.026057l166.209829-166.1952 165.493028 166.107429a115.580343 115.580343 0 0 0 82.300343 34.084571c31.275886 0 60.708571-12.200229 82.885486-34.377143 45.641143-45.655771 45.816686-119.720229 0.394971-165.112685L677.829486 511.678171 843.395657 346.112c45.407086-45.436343 45.231543-119.515429-0.4096-165.112686a116.370286 116.370286 0 0 0-82.885486-34.391771 115.477943 115.477943 0 0 0-82.183314 33.982171l-165.595428 165.5808L346.024229 180.516571a115.419429 115.419429 0 0 0-82.110172-33.923657z" fill="" p-id="6151"></path><path d="M741.668571 317.6448a14.613943 14.613943 0 0 1-10.3424-24.970971l31.0272-31.0272a14.613943 14.613943 0 1 1 20.6848 20.6848l-31.0272 31.0272a14.526171 14.526171 0 0 1-10.3424 4.286171zM596.860343 462.467657a14.613943 14.613943 0 0 1-10.3424-24.970971l103.424-103.424a14.613943 14.613943 0 1 1 20.6848 20.6848l-103.424 103.424a14.584686 14.584686 0 0 1-10.3424 4.286171z" fill="" p-id="6152"></path></svg>