<?xml version="1.0" standalone="no"?><!DOCTYPE svg PUBLIC "-//W3C//DTD SVG 1.1//EN" "http://www.w3.org/Graphics/SVG/1.1/DTD/svg11.dtd"><svg t="1577241011304" class="icon" viewBox="0 0 1024 1024" version="1.1" xmlns="http://www.w3.org/2000/svg" p-id="14642" xmlns:xlink="http://www.w3.org/1999/xlink" width="200" height="200"><defs><style type="text/css"></style></defs><path d="M150.528 300.032a4.8 4.8 0 1 0 98.304 0 4.8 4.8 0 1 0-98.304 0zM402.432 343.04H829.44c23.552 0 44.032-19.456 44.032-44.032S852.992 256 829.44 256H402.432c-23.552 0-44.032 19.456-44.032 44.032s19.456 43.008 44.032 43.008zM150.528 512a4.8 4.8 0 1 0 98.304 0 4.8 4.8 0 1 0-98.304 0zM829.44 468.992H402.432c-23.552 0-44.032 19.456-44.032 44.032s19.456 44.032 44.032 44.032H829.44c23.552 0 44.032-19.456 44.032-44.032s-20.48-44.032-44.032-44.032zM150.528 724.992a4.8 4.8 0 1 0 98.304 0 4.8 4.8 0 1 0-98.304 0zM829.44 680.96H402.432c-23.552 0-44.032 19.456-44.032 44.032s19.456 44.032 44.032 44.032H829.44c23.552 0 44.032-19.456 44.032-44.032s-20.48-44.032-44.032-44.032z" p-id="14643"></path></svg>