<?xml version="1.0" standalone="no"?><!DOCTYPE svg PUBLIC "-//W3C//DTD SVG 1.1//EN" "http://www.w3.org/Graphics/SVG/1.1/DTD/svg11.dtd"><svg t="1574990063900" class="icon" viewBox="0 0 1024 1024" version="1.1" xmlns="http://www.w3.org/2000/svg" p-id="12044" xmlns:xlink="http://www.w3.org/1999/xlink" width="200" height="200"><defs><style type="text/css"></style></defs><path d="M998.4 755.2c-160-76.8-102.4-441.6-262.4-550.4C627.2 134.4 537.6 384 505.6 454.4 480 505.6 454.4 563.2 428.8 620.8c-25.6 57.6-44.8 140.8-83.2 44.8C332.8 620.8 300.8 537.6 256 518.4c-147.2-57.6-140.8 153.6-236.8 236.8-32 25.6 0 96 32 64 44.8-38.4 57.6-70.4 83.2-128 76.8-179.2 153.6 19.2 192 96 25.6 51.2 83.2 25.6 102.4-19.2C473.6 678.4 512 582.4 556.8 492.8 576 454.4 595.2 422.4 614.4 384c70.4-134.4 160-32 192 76.8 38.4 128 57.6 307.2 172.8 364.8C1017.6 844.8 1036.8 768 998.4 755.2z" p-id="12045"></path></svg>